<svg xmlns="http://www.w3.org/2000/svg" viewBox="0 0 128 128" width="50" height="50"><path fill="#a4f4c4" d="M37,76.9h-3c-3.3,0-6-2.7-6-6v-14c0-3.3,2.7-6,6-6l0.1-2.8l0,0c1.7,0,3,1.3,3,3L37,76.9z"/><path fill="#06a18c" d="M91,76.9h3c3.3,0,6-2.7,6-6v-14c0-3.3-2.7-6-6-6l0,0h-3V76.9z"/><path fill="#8fe5b5" d="M74.2,26.6l-3.3-1.1c-2.2-0.5-4.5-0.8-6.8-0.8c-2.3,0-4.6,0.3-6.8,0.8l-3.3,1 c-8.2,3.1-13.8,9.9-13.8,17.8c0,0.1,47.9,0,47.9,0C88,36.5,82.3,29.7,74.2,26.6z"/><path fill="#444b54" d="M57.3,28.5c-0.8,0-1.5-0.3-2.1-0.9l-6-6c-1.2-1.2-1.2-3.1,0-4.2c1.2-1.2,3.1-1.2,4.2,0l6,6 c1.2,1.2,1.2,3.1,0,4.2C58.8,28.2,58,28.5,57.3,28.5z"/><path fill="#4ac3a0" d="M64.1,24.7C64.1,24.7,64.1,24.7,64.1,24.7c-1.2,0-2.4,0.1-3.6,0.2c-0.4,0.1-0.8,0.1-1.2,0.2 C73.5,25.6,78,36.5,78,44.3c0,0,8.7,0,9.9,0c0.1,0,0.1,0,0.1,0c0-0.5,0-1-0.1-1.5c0-0.5-0.1-1-0.2-1.4c-0.2-0.9-0.4-1.9-0.8-2.8 c-0.5-1.3-1.2-2.6-2-3.8c-1.2-1.7-2.7-3.3-4.4-4.7c-1.8-1.4-4-2.6-6.3-3.5l-3.3-1.1C68.7,25,66.4,24.7,64.1,24.7"/><path fill="#8fe5b5" d="M56.6,24.8l-4.5-0.1C52.8,24.7,55.8,24.7,56.6,24.8z"/><path fill="#fff" d="M57 33.1A2.8 2.8 0 1 0 57 38.699999999999996 2.8 2.8 0 1 0 57 33.1zM71.1 33.1A2.8 2.8 0 1 0 71.1 38.699999999999996 2.8 2.8 0 1 0 71.1 33.1z"/><path fill="#8fe5b5" d="M40.1,80.9c0,4.6,3.8,8.4,8.4,8.4v14.8c0,2.7,2.5,4.9,5.6,4.9s5.6-2.2,5.6-4.9V89.3h8.5v14.8 c0,2.7,2.5,4.9,5.6,4.9s5.6-2.2,5.6-4.9V89.3l0,0c4.7,0,8.5-3.8,8.5-8.4V51.2c0-1.7-1.3-3-3-3H43.1c-1.7,0-3,1.3-3,3V80.9L40.1,80.9 z M48.5,89.3v14.8c0,2.7,2.5,4.9,5.6,4.9"/><path fill="#4ac3a0" d="M59.7 89.5c-3.8 4-7.6 7.3-11.2 9.9v4.7c0 2.7 2.5 4.9 5.6 4.9 3.1 0 5.6-2.2 5.6-4.9L59.7 89.5M84.9 48.2H78c0 12.5-4.2 24.7-12.1 34.4-2 2.5-4 4.7-5.9 6.7h8.3v14.8c0 .8.2 1.6.6 2.3.1.3.4.5.6.8 1 1.1 2.6 1.8 4.3 1.8 3.1 0 5.6-2.2 5.6-4.9V89.3c4.7 0 8.5-3.8 8.5-8.4V51.2C87.9 49.5 86.6 48.2 84.9 48.2"/><path fill="#444b54" d="M73.9,112c-4.8,0-8.6-3.6-8.6-7.9V92.3h-2.5v11.8c0,4.4-3.9,7.9-8.6,7.9c-1.7,0-3-1.3-3-3s1.3-3,3-3 c1.4,0,2.6-0.9,2.6-1.9V89.3c0-1.7,1.3-3,3-3h8.5c1.7,0,3,1.3,3,3v14.8c0,1,1.2,1.9,2.6,1.9s2.6-0.9,2.6-1.9V89.3c0-1.7,1.3-3,3-3 c3,0,5.5-2.4,5.5-5.4v-4l0,0v-16c0-1.7,1.3-3,3-3l0,0c1.7,0,3,1.3,3,3v13h3.3c1.4,0,2.6-0.9,2.6-1.9V56.9c0-0.8-0.3-1.6-0.9-2.1 c-0.6-0.6-1.3-0.9-2.1-0.9l0,0c-1.7,0-3-1.3-3-3s1.3-3,3-3l0,0c2.4,0,4.7,0.9,6.4,2.6c1.7,1.7,2.6,4,2.6,6.4V72 c0,4.4-3.9,7.9-8.6,7.9H91v1c0,5.3-3.6,9.7-8.5,11v12.2C82.5,108.4,78.6,112,73.9,112z M48.5,92.3L48.5,92.3 c-6.3,0-11.4-5.1-11.4-11.4L37,61c0-1.7,1.3-3,3-3l0,0c1.7,0,3,1.3,3,3l0.1,19.9c0,3,2.4,5.4,5.4,5.4c1.7,0,3,1.4,3,3 C51.5,91,50.2,92.3,48.5,92.3z M87.7,44.5c-1.4,0-2.7-1-2.9-2.5c-1-5.4-5.3-10.2-11.6-12.6l-3.1-1c-3.9-0.9-8-0.9-12,0l-3.2,1 c-6.3,2.4-10.6,7.1-11.6,12.6c-0.3,1.6-1.9,2.7-3.5,2.4s-2.7-1.9-2.4-3.5c1.4-7.5,7.2-13.9,15.4-17.1c0.1,0,0.1,0,0.2-0.1l3.3-1 c0.1,0,0.1,0,0.2-0.1c4.9-1.2,10.1-1.2,15,0c0.1,0,0.1,0,0.2,0.1l3.3,1.1c0.1,0,0.1,0,0.2,0.1c8.3,3.2,14,9.6,15.4,17.2 c0.3,1.6-0.8,3.2-2.4,3.5C88.1,44.4,87.9,44.5,87.7,44.5z"/><path fill="#444b54" d="M70.9 28.5c-.8 0-1.5-.3-2.1-.9-1.2-1.2-1.2-3.1 0-4.2l6.1-6c1.2-1.2 3.1-1.2 4.2 0s1.2 3.1 0 4.2l-6.1 6C72.4 28.2 71.6 28.5 70.9 28.5zM95 112H54.1c-1.7 0-3-1.3-3-3s1.3-3 3-3H95c1.7 0 3 1.3 3 3S96.7 112 95 112zM110 112c-.2 0-.4 0-.6-.1-.2 0-.4-.1-.6-.2s-.3-.2-.5-.3c-.2-.1-.3-.2-.5-.4-.6-.6-.9-1.3-.9-2.1 0-.2 0-.4.1-.6 0-.2.1-.4.2-.6s.2-.3.3-.5c.1-.2.2-.3.4-.5s.3-.3.5-.4.3-.2.5-.3c.2-.1.4-.1.6-.2.4-.1.8-.1 1.2 0 .2 0 .4.1.6.2s.4.2.5.3c.2.1.3.2.5.4.1.1.3.3.4.5s.2.3.3.5c.1.2.1.4.2.6 0 .2.1.4.1.6 0 .8-.3 1.6-.9 2.1-.1.1-.3.3-.5.4s-.3.2-.5.3c-.2.1-.4.1-.6.2C110.4 112 110.2 112 110 112zM40 80h-6c-5 0-9-4-9-9V57c0-5 4-9 9-9 1.7 0 3 1.3 3 3s-1.3 3-3 3-3 1.3-3 3v14c0 1.7 1.3 3 3 3h6c1.7 0 3 1.3 3 3S41.7 80 40 80z"/><path fill="#444b54" d="M54.1,112c-4.8,0-8.6-3.6-8.6-7.9V89.3c0-1.7,1.3-3,3-3s3,1.3,3,3v14.8c0,1,1.2,1.9,2.6,1.9 c1.7,0,3,1.3,3,3S55.8,112,54.1,112z"/></svg>