<?xml version="1.0" encoding="UTF-8" standalone="yes"?>
<svg xmlns="http://www.w3.org/2000/svg" viewBox="0 0 26 26" width="50" height="50" fill="#000000">
  <path d="M 23.933594 18.945313 C 23.335938 20.269531 23.050781 20.863281 22.28125 22.03125 C 21.210938 23.667969 19.695313 25.707031 17.820313 25.71875 C 16.15625 25.734375 15.726563 24.632813 13.464844 24.652344 C 11.203125 24.660156 10.730469 25.738281 9.0625 25.722656 C 7.191406 25.707031 5.757813 23.867188 4.683594 22.238281 C 1.679688 17.664063 1.363281 12.300781 3.21875 9.449219 C 4.53125 7.425781 6.609375 6.238281 8.5625 6.238281 C 10.546875 6.238281 11.796875 7.328125 13.441406 7.328125 C 15.035156 7.328125 16.003906 6.234375 18.304688 6.234375 C 20.039063 6.234375 21.878906 7.179688 23.191406 8.816406 C 18.894531 11.167969 19.59375 17.304688 23.933594 18.945313 Z M 16.558594 4.40625 C 17.394531 3.335938 18.027344 1.820313 17.800781 0.277344 C 16.433594 0.371094 14.839844 1.242188 13.90625 2.367188 C 13.0625 3.394531 12.363281 4.921875 12.636719 6.398438 C 14.125 6.445313 15.664063 5.558594 16.558594 4.40625 Z"/>
</svg>
