<svg xmlns="http://www.w3.org/2000/svg" viewBox="0 0 40 40" width="50" height="50"><path fill="#98ccfd" d="M2.5 32.563L2.5 20.5 16.5 20.5 16.5 34.455z"/><path fill="#4788c7" d="M16,21v12.883L3,32.126V21H16 M17,20H2v13l15,2.027V20L17,20z"/><path fill="#98ccfd" d="M18.5 34.725L18.5 20.5 38.5 20.5 38.5 37.428z"/><path fill="#4788c7" d="M38,21v15.856l-19-2.568V21H38 M39,20H18v15.162L39,38V20L39,20z"/><g><path fill="#98ccfd" d="M2.5 18.5L2.5 6.437 16.5 4.545 16.5 18.5z"/><path fill="#4788c7" d="M16,5.117V18H3V6.874L16,5.117 M17,3.973L2,6v13h15V3.973L17,3.973z"/></g><g><path fill="#98ccfd" d="M18.5 18.5L18.5 4.275 38.5 1.572 38.5 18.5z"/><path fill="#4788c7" d="M38,2.144V18H19V4.712L38,2.144 M39,1L18,3.838V19h21V1L39,1z"/></g></svg>