<svg width="560" height="216" viewBox="0 0 560 216" fill="none" xmlns="http://www.w3.org/2000/svg">
<rect x="-3157" y="-1306" width="4096" height="4096" />
<path d="M272.672 113.984C272.672 112.328 271.844 111.031 270.188 110.094C268.562 109.125 265.938 108.266 262.312 107.516C250.25 104.984 244.219 99.8594 244.219 92.1406C244.219 87.6406 246.078 83.8906 249.797 80.8906C253.547 77.8594 258.438 76.3438 264.469 76.3438C270.906 76.3438 276.047 77.8594 279.891 80.8906C283.766 83.9219 285.703 87.8594 285.703 92.7031H272.156C272.156 90.7656 271.531 89.1719 270.281 87.9219C269.031 86.6406 267.078 86 264.422 86C262.141 86 260.375 86.5156 259.125 87.5469C257.875 88.5781 257.25 89.8906 257.25 91.4844C257.25 92.9844 257.953 94.2031 259.359 95.1406C260.797 96.0469 263.203 96.8438 266.578 97.5312C269.953 98.1875 272.797 98.9375 275.109 99.7812C282.266 102.406 285.844 106.953 285.844 113.422C285.844 118.047 283.859 121.797 279.891 124.672C275.922 127.516 270.797 128.938 264.516 128.938C260.266 128.938 256.484 128.188 253.172 126.688C249.891 125.156 247.312 123.078 245.438 120.453C243.562 117.797 242.625 114.938 242.625 111.875H255.469C255.594 114.281 256.484 116.125 258.141 117.406C259.797 118.688 262.016 119.328 264.797 119.328C267.391 119.328 269.344 118.844 270.656 117.875C272 116.875 272.672 115.578 272.672 113.984ZM317.953 128.938C310.516 128.938 304.453 126.656 299.766 122.094C295.109 117.531 292.781 111.453 292.781 103.859V102.547C292.781 97.4531 293.766 92.9062 295.734 88.9062C297.703 84.875 300.484 81.7812 304.078 79.625C307.703 77.4375 311.828 76.3438 316.453 76.3438C323.391 76.3438 328.844 78.5312 332.812 82.9062C336.812 87.2812 338.812 93.4844 338.812 101.516V107.047H306.516C306.953 110.359 308.266 113.016 310.453 115.016C312.672 117.016 315.469 118.016 318.844 118.016C324.062 118.016 328.141 116.125 331.078 112.344L337.734 119.797C335.703 122.672 332.953 124.922 329.484 126.547C326.016 128.141 322.172 128.938 317.953 128.938ZM316.406 87.3125C313.719 87.3125 311.531 88.2188 309.844 90.0312C308.188 91.8438 307.125 94.4375 306.656 97.8125H325.5V96.7344C325.438 93.7344 324.625 91.4219 323.062 89.7969C321.5 88.1406 319.281 87.3125 316.406 87.3125ZM359.016 77.2812L359.438 83.1406C363.062 78.6094 367.922 76.3438 374.016 76.3438C379.391 76.3438 383.391 77.9219 386.016 81.0781C388.641 84.2344 389.984 88.9531 390.047 95.2344V128H376.5V95.5625C376.5 92.6875 375.875 90.6094 374.625 89.3281C373.375 88.0156 371.297 87.3594 368.391 87.3594C364.578 87.3594 361.719 88.9844 359.812 92.2344V128H346.266V77.2812H359.016ZM427.828 113.984C427.828 112.328 427 111.031 425.344 110.094C423.719 109.125 421.094 108.266 417.469 107.516C405.406 104.984 399.375 99.8594 399.375 92.1406C399.375 87.6406 401.234 83.8906 404.953 80.8906C408.703 77.8594 413.594 76.3438 419.625 76.3438C426.062 76.3438 431.203 77.8594 435.047 80.8906C438.922 83.9219 440.859 87.8594 440.859 92.7031H427.312C427.312 90.7656 426.688 89.1719 425.438 87.9219C424.188 86.6406 422.234 86 419.578 86C417.297 86 415.531 86.5156 414.281 87.5469C413.031 88.5781 412.406 89.8906 412.406 91.4844C412.406 92.9844 413.109 94.2031 414.516 95.1406C415.953 96.0469 418.359 96.8438 421.734 97.5312C425.109 98.1875 427.953 98.9375 430.266 99.7812C437.422 102.406 441 106.953 441 113.422C441 118.047 439.016 121.797 435.047 124.672C431.078 127.516 425.953 128.938 419.672 128.938C415.422 128.938 411.641 128.188 408.328 126.688C405.047 125.156 402.469 123.078 400.594 120.453C398.719 117.797 397.781 114.938 397.781 111.875H410.625C410.75 114.281 411.641 116.125 413.297 117.406C414.953 118.688 417.172 119.328 419.953 119.328C422.547 119.328 424.5 118.844 425.812 117.875C427.156 116.875 427.828 115.578 427.828 113.984ZM447.656 102.172C447.656 97.1406 448.625 92.6562 450.562 88.7188C452.5 84.7812 455.281 81.7344 458.906 79.5781C462.562 77.4219 466.797 76.3438 471.609 76.3438C478.453 76.3438 484.031 78.4375 488.344 82.625C492.688 86.8125 495.109 92.5 495.609 99.6875L495.703 103.156C495.703 110.938 493.531 117.188 489.188 121.906C484.844 126.594 479.016 128.938 471.703 128.938C464.391 128.938 458.547 126.594 454.172 121.906C449.828 117.219 447.656 110.844 447.656 102.781V102.172ZM461.203 103.156C461.203 107.969 462.109 111.656 463.922 114.219C465.734 116.75 468.328 118.016 471.703 118.016C474.984 118.016 477.547 116.766 479.391 114.266C481.234 111.734 482.156 107.703 482.156 102.172C482.156 97.4531 481.234 93.7969 479.391 91.2031C477.547 88.6094 474.953 87.3125 471.609 87.3125C468.297 87.3125 465.734 88.6094 463.922 91.2031C462.109 93.7656 461.203 97.75 461.203 103.156ZM532.547 89.9844C530.703 89.7344 529.078 89.6094 527.672 89.6094C522.547 89.6094 519.188 91.3438 517.594 94.8125V128H504.047V77.2812H516.844L517.219 83.3281C519.938 78.6719 523.703 76.3438 528.516 76.3438C530.016 76.3438 531.422 76.5469 532.734 76.9531L532.547 89.9844Z" fill="black"/>
<path d="M255.203 177.785C257.482 177.785 259.387 177.147 260.918 175.871C262.467 174.577 263.306 172.909 263.434 170.867H266.578C266.487 172.672 265.922 174.322 264.883 175.816C263.844 177.293 262.458 178.451 260.727 179.289C259.013 180.128 257.172 180.547 255.203 180.547C251.32 180.547 248.24 179.198 245.961 176.5C243.701 173.802 242.57 170.174 242.57 165.617V164.633C242.57 161.716 243.081 159.137 244.102 156.895C245.122 154.652 246.581 152.921 248.477 151.699C250.391 150.478 252.624 149.867 255.176 149.867C258.421 149.867 261.091 150.833 263.188 152.766C265.302 154.698 266.432 157.241 266.578 160.395H263.434C263.288 158.079 262.449 156.211 260.918 154.789C259.405 153.367 257.491 152.656 255.176 152.656C252.223 152.656 249.926 153.723 248.285 155.855C246.663 157.988 245.852 160.978 245.852 164.824V165.781C245.852 169.555 246.663 172.499 248.285 174.613C249.926 176.728 252.232 177.785 255.203 177.785ZM274.136 164.77C274.136 161.926 274.683 159.365 275.777 157.086C276.889 154.807 278.447 153.039 280.452 151.781C282.476 150.505 284.764 149.867 287.316 149.867C291.253 149.867 294.443 151.253 296.886 154.023C299.329 156.776 300.55 160.431 300.55 164.988V165.672C300.55 168.534 299.994 171.113 298.882 173.41C297.788 175.689 296.239 177.448 294.234 178.688C292.228 179.927 289.941 180.547 287.37 180.547C283.451 180.547 280.261 179.171 277.8 176.418C275.357 173.647 274.136 169.983 274.136 165.426V164.77ZM277.417 165.672C277.417 169.208 278.329 172.116 280.152 174.395C281.993 176.655 284.399 177.785 287.37 177.785C290.323 177.785 292.711 176.655 294.534 174.395C296.376 172.116 297.296 169.117 297.296 165.398V164.77C297.296 162.509 296.877 160.44 296.038 158.562C295.2 156.685 294.024 155.236 292.511 154.215C290.998 153.176 289.266 152.656 287.316 152.656C284.399 152.656 282.02 153.805 280.179 156.102C278.338 158.38 277.417 161.37 277.417 165.07V165.672ZM313.112 150.414L313.221 155.227C314.315 153.44 315.682 152.1 317.323 151.207C318.963 150.314 320.786 149.867 322.791 149.867C327.458 149.867 330.42 151.781 331.678 155.609C332.735 153.768 334.148 152.355 335.916 151.371C337.685 150.368 339.635 149.867 341.768 149.867C348.112 149.867 351.347 153.331 351.475 160.258V180H348.194V160.504C348.176 157.861 347.601 155.901 346.471 154.625C345.359 153.349 343.536 152.711 341.002 152.711C338.651 152.747 336.664 153.513 335.041 155.008C333.419 156.484 332.517 158.289 332.334 160.422V180H329.053V160.258C329.035 157.724 328.433 155.837 327.248 154.598C326.082 153.34 324.277 152.711 321.834 152.711C319.774 152.711 318.006 153.303 316.53 154.488C315.053 155.655 313.959 157.396 313.248 159.711V180H309.967V150.414H313.112ZM365.568 150.414L365.677 155.227C366.771 153.44 368.138 152.1 369.779 151.207C371.42 150.314 373.242 149.867 375.248 149.867C379.914 149.867 382.877 151.781 384.134 155.609C385.192 153.768 386.604 152.355 388.373 151.371C390.141 150.368 392.091 149.867 394.224 149.867C400.568 149.867 403.804 153.331 403.931 160.258V180H400.65V160.504C400.632 157.861 400.058 155.901 398.927 154.625C397.815 153.349 395.992 152.711 393.459 152.711C391.107 152.747 389.12 153.513 387.498 155.008C385.875 156.484 384.973 158.289 384.791 160.422V180H381.509V160.258C381.491 157.724 380.89 155.837 379.705 154.598C378.538 153.34 376.733 152.711 374.291 152.711C372.231 152.711 370.463 153.303 368.986 154.488C367.509 155.655 366.416 157.396 365.705 159.711V180H362.423V150.414H365.568ZM434.075 176.254C432.106 179.116 428.962 180.547 424.641 180.547C421.488 180.547 419.091 179.635 417.45 177.812C415.809 175.971 414.971 173.255 414.934 169.664V150.414H418.188V169.254C418.188 174.887 420.467 177.703 425.024 177.703C429.764 177.703 432.762 175.743 434.02 171.824V150.414H437.302V180H434.13L434.075 176.254ZM451.75 150.414L451.859 155.473C452.971 153.65 454.357 152.264 456.016 151.316C457.674 150.35 459.507 149.867 461.512 149.867C464.684 149.867 467.044 150.76 468.594 152.547C470.143 154.333 470.927 157.013 470.945 160.586V180H467.691V160.559C467.673 157.915 467.108 155.947 465.996 154.652C464.902 153.358 463.143 152.711 460.719 152.711C458.695 152.711 456.9 153.349 455.332 154.625C453.783 155.883 452.634 157.587 451.887 159.738V180H448.633V150.414H451.75ZM485.886 180H482.605V150.414H485.886V180ZM482.03 141.855C482.03 141.236 482.231 140.716 482.632 140.297C483.033 139.859 483.58 139.641 484.273 139.641C484.965 139.641 485.512 139.859 485.913 140.297C486.333 140.716 486.542 141.236 486.542 141.855C486.542 142.475 486.333 142.995 485.913 143.414C485.512 143.833 484.965 144.043 484.273 144.043C483.58 144.043 483.033 143.833 482.632 143.414C482.231 142.995 482.03 142.475 482.03 141.855ZM502.686 142.84V150.414H508.811V153.094H502.686V172.809C502.686 174.449 502.978 175.671 503.561 176.473C504.163 177.275 505.156 177.676 506.541 177.676C507.088 177.676 507.972 177.585 509.194 177.402L509.33 180.082C508.474 180.392 507.307 180.547 505.83 180.547C503.588 180.547 501.957 179.9 500.936 178.605C499.915 177.293 499.405 175.37 499.405 172.836V153.094H493.963V150.414H499.405V142.84H502.686ZM527.771 175.297L536.412 150.414H539.939L527.306 185.031L526.65 186.562C525.028 190.154 522.521 191.949 519.13 191.949C518.347 191.949 517.508 191.822 516.615 191.566L516.587 188.859L518.283 189.023C519.887 189.023 521.181 188.622 522.166 187.82C523.168 187.036 524.016 185.678 524.709 183.746L526.158 179.754L515.002 150.414H518.584L527.771 175.297Z" fill="black"/>
<path d="M43.5983 48.7753C47.1806 42.3943 53.9618 38.4792 61.279 38.5674L95.8336 38.9838L130.388 38.5674C137.705 38.4792 144.487 42.3943 148.069 48.7753L164.986 78.9087L182.623 108.626C186.358 114.918 186.358 122.749 182.623 129.042L164.986 158.759L148.069 188.892C144.487 195.273 137.705 199.188 130.388 199.1L95.8336 198.683L61.279 199.1C53.9617 199.188 47.1805 195.273 43.5983 188.892L26.6816 158.759L9.04371 129.042C5.30871 122.749 5.30871 114.918 9.04371 108.626L26.6816 78.9087L43.5983 48.7753Z" fill="#27AE60"/>
<path d="M51.2602 65.8106C53.0689 58.7198 58.6057 53.183 65.6965 51.3743L99.1814 42.8332L132.451 33.4875C139.496 31.5085 147.059 33.5352 152.171 38.7716L176.31 63.4998L201.039 87.6391C206.275 92.7509 208.302 100.314 206.323 107.359L196.977 140.629L188.436 174.114C186.627 181.205 181.09 186.741 174 188.55L140.515 197.091L107.245 206.437C100.2 208.416 92.6368 206.389 87.525 201.153L63.3857 176.425L38.6575 152.285C33.4211 147.173 31.3944 139.61 33.3735 132.565L42.7191 99.2955L51.2602 65.8106Z" fill="#19D266"/>
<path d="M43.7506 89.7362C41.7715 82.6911 43.7982 75.1276 49.0346 70.0159L73.7628 45.8765L97.9021 21.1483C103.014 15.9119 110.577 13.8853 117.622 15.8643L150.892 25.2099L184.377 33.7511C191.468 35.5597 197.004 41.0966 198.813 48.1873L207.354 81.6722L216.7 114.942C218.679 121.987 216.652 129.55 211.416 134.662L186.688 158.801L162.548 183.529C157.436 188.766 149.873 190.793 142.828 188.814L109.559 179.468L76.0736 170.927C68.9828 169.118 63.446 163.581 61.6373 156.49L53.0962 123.006L43.7506 89.7362Z" fill="#6FCF97"/>
<path d="M96.0498 6.46804C102.343 2.73305 110.173 2.73305 116.466 6.46805L146.183 24.106L176.316 41.0226C182.697 44.6049 186.612 51.3861 186.524 58.7034L186.108 93.2579L186.524 127.813C186.612 135.13 182.697 141.911 176.316 145.493L146.183 162.41L116.466 180.048C110.173 183.783 102.343 183.783 96.0498 180.048L66.3329 162.41L36.1996 145.493C29.8185 141.911 25.9034 135.13 25.9916 127.813L26.408 93.2579L25.9916 58.7034C25.9034 51.3861 29.8185 44.6049 36.1996 41.0226L66.3329 24.106L96.0498 6.46804Z" fill="black"/>
<path d="M84.4844 108.094C84.4844 105.438 83.5469 103.406 81.6719 102C79.7969 100.562 76.4219 99.0625 71.5469 97.5C66.6719 95.9062 62.8125 94.3438 59.9688 92.8125C52.2188 88.625 48.3438 82.9844 48.3438 75.8906C48.3438 72.2031 49.375 68.9219 51.4375 66.0469C53.5312 63.1406 56.5156 60.875 60.3906 59.25C64.2969 57.625 68.6719 56.8125 73.5156 56.8125C78.3906 56.8125 82.7344 57.7031 86.5469 59.4844C90.3594 61.2344 93.3125 63.7188 95.4062 66.9375C97.5312 70.1562 98.5938 73.8125 98.5938 77.9062H84.5312C84.5312 74.7812 83.5469 72.3594 81.5781 70.6406C79.6094 68.8906 76.8438 68.0156 73.2812 68.0156C69.8438 68.0156 67.1719 68.75 65.2656 70.2188C63.3594 71.6562 62.4062 73.5625 62.4062 75.9375C62.4062 78.1562 63.5156 80.0156 65.7344 81.5156C67.9844 83.0156 71.2812 84.4219 75.625 85.7344C83.625 88.1406 89.4531 91.125 93.1094 94.6875C96.7656 98.25 98.5938 102.688 98.5938 108C98.5938 113.906 96.3594 118.547 91.8906 121.922C87.4219 125.266 81.4062 126.938 73.8438 126.938C68.5938 126.938 63.8125 125.984 59.5 124.078C55.1875 122.141 51.8906 119.5 49.6094 116.156C47.3594 112.812 46.2344 108.938 46.2344 104.531H60.3438C60.3438 112.062 64.8438 115.828 73.8438 115.828C77.1875 115.828 79.7969 115.156 81.6719 113.812C83.5469 112.438 84.4844 110.531 84.4844 108.094ZM160.294 103.266C159.763 110.609 157.044 116.391 152.138 120.609C147.263 124.828 140.826 126.938 132.826 126.938C124.076 126.938 117.185 124 112.154 118.125C107.154 112.219 104.654 104.125 104.654 93.8438V89.6719C104.654 83.1094 105.81 77.3281 108.123 72.3281C110.435 67.3281 113.732 63.5 118.013 60.8438C122.326 58.1562 127.326 56.8125 133.013 56.8125C140.888 56.8125 147.232 58.9219 152.044 63.1406C156.857 67.3594 159.638 73.2812 160.388 80.9062H146.326C145.982 76.5 144.748 73.3125 142.623 71.3438C140.529 69.3438 137.326 68.3438 133.013 68.3438C128.326 68.3438 124.81 70.0312 122.466 73.4062C120.154 76.75 118.966 81.9531 118.904 89.0156V94.1719C118.904 101.547 120.013 106.938 122.232 110.344C124.482 113.75 128.013 115.453 132.826 115.453C137.169 115.453 140.404 114.469 142.529 112.5C144.685 110.5 145.919 107.422 146.232 103.266H160.294Z" fill="#F2F2F2"/>
</svg>
